<svg width="28" height="28" viewBox="0 0 28 28" fill="none" xmlns="http://www.w3.org/2000/svg">
<path d="M23.1338 4.86523L26.917 14L23.1338 23.1338L14 26.917L4.86523 23.1338L1.08203 14L4.86523 4.86523L14 1.08203L23.1338 4.86523Z" fill="#105626" stroke="#17D773" stroke-width="2"/>
<path d="M16.383 8V13.0227C16.383 13.1709 16.4268 13.3157 16.509 13.439L20.106 18.8337C20.1814 18.9467 20.2246 19.078 20.2312 19.2136C20.2378 19.3492 20.2075 19.4841 20.1434 19.6038C20.0794 19.7235 19.984 19.8236 19.8675 19.8934C19.751 19.9632 19.6178 20 19.482 20H8.784C8.64816 20.0002 8.51482 19.9634 8.39823 19.8937C8.28164 19.824 8.18617 19.7239 8.12203 19.6042C8.05788 19.4844 8.02746 19.3495 8.03402 19.2138C8.04057 19.0781 8.08386 18.9468 8.15925 18.8337L11.7563 13.439C11.8387 13.3158 11.8828 13.171 11.883 13.0227V8" stroke="#17D773" stroke-width="1.5" stroke-linejoin="round"/>
<path d="M17.8081 17.9L16.2331 15.8C16.1632 15.7069 16.0726 15.6313 15.9685 15.5792C15.8643 15.5271 15.7495 15.5 15.6331 15.5H12.6331C12.5166 15.5 12.4018 15.5271 12.2976 15.5792C12.1935 15.6313 12.1029 15.7069 12.0331 15.8L10.4581 17.9C10.4163 17.9557 10.3908 18.022 10.3846 18.0913C10.3783 18.1607 10.3915 18.2304 10.4226 18.2927C10.4538 18.355 10.5017 18.4074 10.5609 18.444C10.6201 18.4806 10.6884 18.5 10.7581 18.5H17.5081C17.5777 18.5 17.646 18.4806 17.7052 18.444C17.7644 18.4074 17.8123 18.355 17.8435 18.2927C17.8746 18.2304 17.8878 18.1607 17.8815 18.0913C17.8753 18.022 17.8498 17.9557 17.8081 17.9Z" fill="#17D773"/>
<path d="M10.3831 8H17.8831" stroke="#17D773" stroke-width="1.5" stroke-linecap="round" stroke-linejoin="round"/>
</svg>
