<svg width="28" height="28" viewBox="0 0 28 28" fill="none" xmlns="http://www.w3.org/2000/svg">
<path d="M23.1338 4.86523L26.917 14L23.1338 23.1338L14 26.917L4.86523 23.1338L1.08203 14L4.86523 4.86523L14 1.08203L23.1338 4.86523Z" fill="#105626" stroke="#17D773" stroke-width="2"/>
<path d="M12.5 13.5C12.5 12.6716 13.1716 12 14 12C14.8284 12 15.5 12.6716 15.5 13.5V15.5556C15.5 15.801 15.301 16 15.0556 16H12.9444C12.699 16 12.5 15.801 12.5 15.5556V13.5Z" fill="#17D773"/>
<path d="M11.4019 7.01364C11.7838 7.01377 12.1265 7.2072 12.3297 7.50485C12.5329 7.2072 12.8755 7.01371 13.2574 7.01364H14.7427C15.1246 7.01374 15.4673 7.2072 15.6705 7.50485C15.8737 7.2072 16.2163 7.01374 16.5982 7.01364H18.0836C18.6934 7.01376 19.2047 7.50658 19.2047 8.13083V11.4316C19.2047 11.8986 18.984 12.3407 18.6031 12.6211L18.6041 12.622L17.7496 13.2549L18.0074 16.58C18.685 16.7157 19.2046 17.3097 19.2047 18.0351V19.5029C19.2045 20.3304 18.5281 20.9861 17.7125 20.9863H10.2877C9.47199 20.9862 8.7956 20.3305 8.79547 19.5029V18.0351C8.79555 17.3101 9.31458 16.716 9.99176 16.58L10.2496 13.2549L9.39606 12.622L9.39703 12.6211C9.01605 12.3407 8.79547 11.8986 8.79547 11.4316V8.13083C8.79547 7.50655 9.30663 7.0137 9.91656 7.01364H11.4019Z" stroke="#17D773" stroke-width="1.5"/>
</svg>
