<svg width="28" height="28" viewBox="0 0 28 28" fill="none" xmlns="http://www.w3.org/2000/svg">
<path d="M23.1338 4.86523L26.917 14L23.1338 23.1338L14 26.917L4.86523 23.1338L1.08203 14L4.86523 4.86523L14 1.08203L23.1338 4.86523Z" fill="#105626" stroke="#17D773" stroke-width="2"/>
<path d="M12.0607 13.7869C11.7879 14.0597 11.6346 14.4298 11.6346 14.8156C11.6346 15.2015 11.7879 15.5715 12.0607 15.8444C12.3335 16.1172 12.7036 16.2705 13.0894 16.2705C13.4753 16.2705 13.8453 16.1172 14.1182 15.8444L14.1363 15.8255L14.1545 15.8444C14.2896 15.9795 14.45 16.0866 14.6265 16.1597C14.803 16.2328 14.9922 16.2705 15.1832 16.2705C15.3743 16.2705 15.5635 16.2328 15.74 16.1597C15.9165 16.0866 16.0769 15.9795 16.212 15.8444C16.3471 15.7093 16.4542 15.5489 16.5273 15.3724C16.6005 15.1959 16.6381 15.0067 16.6381 14.8156C16.6381 14.6246 16.6005 14.4354 16.5273 14.2589C16.4542 14.0824 16.3471 13.922 16.212 13.7869L14.1545 11.7309L14.1363 11.7484L14.1182 11.7302L12.0607 13.7869Z" fill="#17D773"/>
<path fill-rule="evenodd" clip-rule="evenodd" d="M7.59088 19.8182C7.59088 20.3968 7.82075 20.9518 8.22992 21.361C8.63909 21.7701 9.19405 22 9.7727 22H18.5C19.0786 22 19.6336 21.7701 20.0428 21.361C20.4519 20.9518 20.6818 20.3968 20.6818 19.8182V8.18182C20.6818 7.60316 20.4519 7.04821 20.0428 6.63904C19.6336 6.22987 19.0786 6 18.5 6H9.7727C9.19405 6 8.63909 6.22987 8.22992 6.63904C7.82075 7.04821 7.59088 7.60316 7.59088 8.18182V19.8182ZM9.7727 20.5455H18.5C18.6929 20.5455 18.8778 20.4688 19.0142 20.3324C19.1506 20.1961 19.2272 20.0111 19.2272 19.8182V8.18182C19.2272 7.98893 19.1506 7.80395 19.0142 7.66756C18.8778 7.53117 18.6929 7.45455 18.5 7.45455H9.7727C9.57981 7.45455 9.39483 7.53117 9.25844 7.66756C9.12205 7.80395 9.04543 7.98893 9.04543 8.18182V19.8182C9.04543 20.0111 9.12205 20.1961 9.25844 20.3324C9.39483 20.4688 9.57981 20.5455 9.7727 20.5455Z" fill="#17D773"/>
</svg>
