<svg width="28" height="28" viewBox="0 0 28 28" fill="none" xmlns="http://www.w3.org/2000/svg">
<path d="M23.1338 4.86523L26.917 14L23.1338 23.1338L14 26.917L4.86523 23.1338L1.08203 14L4.86523 4.86523L14 1.08203L23.1338 4.86523Z" fill="#105626" stroke="#17D773" stroke-width="2"/>
<path d="M11.6688 13.0834C11.2595 13.347 10.9554 13.7717 10.8234 14.2643C10.6914 14.7568 10.7424 15.2767 10.9651 15.7097C11.1878 16.1426 11.564 16.4531 12.011 16.5729C12.4579 16.6926 12.9389 16.6118 13.3483 16.3482L13.3758 16.3297L13.3904 16.3595C13.5007 16.5739 13.6498 16.7604 13.8292 16.9085C14.0087 17.0567 14.2149 17.1634 14.4362 17.2227C14.6575 17.282 14.8895 17.2927 15.119 17.2541C15.3484 17.2156 15.5709 17.1286 15.7735 16.9981C15.9762 16.8675 16.1552 16.6961 16.3003 16.4935C16.4453 16.2909 16.5536 16.061 16.619 15.8172C16.6843 15.5733 16.7054 15.3201 16.6811 15.0721C16.6568 14.8241 16.5875 14.5862 16.4773 14.3718L14.7973 11.1088L14.7703 11.1254L14.7554 11.0966L11.6688 13.0834Z" fill="#17D773"/>
<path fill-rule="evenodd" clip-rule="evenodd" d="M6.88688 17.3645C6.75583 17.8536 6.83369 18.3772 7.10332 18.8201C7.37295 19.263 7.81226 19.5889 8.32462 19.7262L16.052 21.7968C16.5644 21.934 17.1078 21.8714 17.5628 21.6227C18.0177 21.3739 18.3469 20.9594 18.478 20.4704L21.1132 10.6355C21.2443 10.1464 21.1664 9.62283 20.8968 9.17993C20.6272 8.73703 20.1879 8.41108 19.6755 8.27379L11.9481 6.20324C11.4357 6.06596 10.8923 6.12858 10.4373 6.37732C9.98238 6.62607 9.65317 7.04057 9.52213 7.52964L6.88688 17.3645ZM8.65403 18.4968L16.3814 20.5674C16.5522 20.6132 16.7334 20.5923 16.885 20.5094C17.0367 20.4265 17.1464 20.2883 17.1901 20.1253L19.8253 10.2904C19.869 10.1274 19.8431 9.95283 19.7532 9.8052C19.6633 9.65757 19.5169 9.54892 19.3461 9.50315L11.6187 7.4326C11.4479 7.38684 11.2668 7.40771 11.1151 7.49063C10.9634 7.57355 10.8537 7.71171 10.81 7.87474L8.17478 17.7096C8.1311 17.8726 8.15705 18.0472 8.24693 18.1948C8.3368 18.3424 8.48324 18.4511 8.65403 18.4968Z" fill="#17D773"/>
</svg>
