<svg width="20" height="20" viewBox="0 0 20 20" fill="none" xmlns="http://www.w3.org/2000/svg">
<path d="M4.28571 3.71429C3.97143 3.71429 3.71429 3.97143 3.71429 4.28571V15.7143C3.71429 16.0286 3.97143 16.2857 4.28571 16.2857H15.7143C16.0286 16.2857 16.2857 16.0286 16.2857 15.7143V7.04643C16.2857 6.89643 16.225 6.75 16.1179 6.64286L13.4286 3.95V7.14286C13.4286 7.775 12.9179 8.28571 12.2857 8.28571H6.57143C5.93929 8.28571 5.42857 7.775 5.42857 7.14286V3.71429H4.28571ZM7.14286 3.71429V6.57143H11.7143V3.71429H7.14286ZM2 4.28571C2 3.025 3.025 2 4.28571 2H12.9536C13.5607 2 14.1429 2.23929 14.5714 2.66786L17.3321 5.42857C17.7607 5.85714 18 6.43929 18 7.04643V15.7143C18 16.975 16.975 18 15.7143 18H4.28571C3.025 18 2 16.975 2 15.7143V4.28571ZM7.71429 12.2857C7.71429 11.025 8.73929 10 10 10C11.2607 10 12.2857 11.025 12.2857 12.2857C12.2857 13.5464 11.2607 14.5714 10 14.5714C8.73929 14.5714 7.71429 13.5464 7.71429 12.2857Z" fill="#17D773"/>
</svg>
