<svg width="20" height="20" viewBox="0 0 20 20" fill="none" xmlns="http://www.w3.org/2000/svg">
<path d="M3.77779 14.1396C2.6249 12.7175 1.99709 10.9418 2.00001 9.11111C2.00001 4.69333 5.58223 2 10 2C14.4178 2 18 4.69333 18 9.11111C18 11.016 17.3333 12.7662 16.2222 14.1396M3.77779 14.1396V16.2222C3.77779 16.6937 3.96509 17.1459 4.29849 17.4793C4.63188 17.8127 5.08407 18 5.55557 18H14.4445C14.9159 18 15.3681 17.8127 15.7015 17.4793C16.0349 17.1459 16.2222 16.6937 16.2222 16.2222V14.1396M3.77779 14.1396H5.11112M16.2222 14.1396H14.8889M7.33334 16.2222V18M10 16.2222V18M12.6667 16.2222V18M7.33334 10C7.33334 10.4909 6.93537 10.8889 6.44445 10.8889C5.95353 10.8889 5.55557 10.4909 5.55557 10C5.55557 9.50908 5.95353 9.11111 6.44445 9.11111C6.93537 9.11111 7.33334 9.50908 7.33334 10ZM9.11112 13.5556L10 11.7778L10.8889 13.5556H9.11112ZM14.4445 10C14.4445 10.4909 14.0465 10.8889 13.5556 10.8889C13.0646 10.8889 12.6667 10.4909 12.6667 10C12.6667 9.50908 13.0646 9.11111 13.5556 9.11111C14.0465 9.11111 14.4445 9.50908 14.4445 10Z" stroke="#17D773" stroke-width="1.77778" stroke-linecap="round" stroke-linejoin="round"/>
</svg>
