<svg width="20" height="20" viewBox="0 0 20 20" fill="none" xmlns="http://www.w3.org/2000/svg">
<path d="M17.7971 11.4387H2.29209C1.9494 11.4387 1.62076 11.5749 1.37844 11.8172C1.13613 12.0595 1 12.3881 1 12.7308V15.315C1 15.6577 1.13613 15.9863 1.37844 16.2286C1.62076 16.4709 1.9494 16.6071 2.29209 16.6071H17.7971C18.1398 16.6071 18.4685 16.4709 18.7108 16.2286C18.9531 15.9863 19.0892 15.6577 19.0892 15.315V12.7308C19.0892 12.3881 18.9531 12.0595 18.7108 11.8172C18.4685 11.5749 18.1398 11.4387 17.7971 11.4387ZM17.7971 15.315H7.46044V12.7308H17.7971V15.315ZM15.9398 5.95381C16.5858 4.80466 16.539 4.20061 16.4534 3.94219C16.4159 3.81893 16.3414 3.71013 16.2402 3.63048C16.1623 3.59627 16.0919 3.54701 16.033 3.48552C15.9742 3.42403 15.9281 3.35153 15.8974 3.27218C15.8667 3.19282 15.8519 3.10818 15.854 3.02311C15.8561 2.93804 15.875 2.85422 15.9095 2.77647C15.9441 2.69871 15.9937 2.62855 16.0555 2.57002C16.1172 2.51148 16.1899 2.46573 16.2694 2.43538C16.3489 2.40502 16.4336 2.39068 16.5187 2.39316C16.6038 2.39564 16.6875 2.4149 16.7651 2.44983C16.9823 2.56043 17.1751 2.71347 17.3321 2.89989C17.4891 3.08632 17.6072 3.30234 17.6792 3.53519C17.9506 4.35405 17.7446 5.38045 17.0655 6.58694C16.4195 7.73609 16.4663 8.34094 16.5519 8.59936C16.5895 8.72233 16.6639 8.83083 16.7651 8.91027C16.843 8.94448 16.9134 8.99374 16.9722 9.05523C17.031 9.11671 17.0771 9.18922 17.1079 9.26857C17.1386 9.34793 17.1533 9.43257 17.1512 9.51764C17.1492 9.6027 17.1303 9.68652 17.0957 9.76428C17.0611 9.84203 17.0116 9.91219 16.9498 9.97073C16.888 10.0293 16.8153 10.075 16.7358 10.1054C16.6563 10.1357 16.5716 10.1501 16.4866 10.1476C16.4015 10.1451 16.3178 10.1258 16.2402 10.0909C16.0229 9.98047 15.83 9.82748 15.6729 9.64104C15.5159 9.45459 15.3979 9.23849 15.326 9.00556C15.0571 8.1867 15.263 7.15868 15.9398 5.95381ZM12.7095 5.95381C13.3556 4.80466 13.3088 4.20061 13.2231 3.94219C13.1856 3.81893 13.1112 3.71013 13.01 3.63048C12.932 3.59627 12.8616 3.54701 12.8028 3.48552C12.744 3.42403 12.6979 3.35153 12.6672 3.27218C12.6365 3.19282 12.6217 3.10818 12.6238 3.02311C12.6259 2.93804 12.6448 2.85422 12.6793 2.77647C12.7139 2.69871 12.7635 2.62855 12.8252 2.57002C12.887 2.51148 12.9597 2.46573 13.0392 2.43538C13.1187 2.40502 13.2034 2.39068 13.2885 2.39316C13.3735 2.39564 13.4573 2.4149 13.5349 2.44983C13.7521 2.56043 13.9449 2.71347 14.1019 2.89989C14.2589 3.08632 14.377 3.30234 14.449 3.53519C14.7204 4.35405 14.5144 5.38045 13.8353 6.58694C13.1892 7.73609 13.2361 8.34094 13.3217 8.59936C13.3593 8.72233 13.4337 8.83083 13.5349 8.91027C13.6128 8.94448 13.6832 8.99374 13.742 9.05523C13.8008 9.11671 13.8469 9.18922 13.8776 9.26857C13.9084 9.34793 13.9231 9.43257 13.921 9.51764C13.9189 9.6027 13.9001 9.68652 13.8655 9.76428C13.8309 9.84203 13.7813 9.91219 13.7196 9.97073C13.6578 10.0293 13.5851 10.075 13.5056 10.1054C13.4261 10.1357 13.3414 10.1501 13.2563 10.1476C13.1713 10.1451 13.0875 10.1258 13.01 10.0909C12.7926 9.98047 12.5997 9.82748 12.4427 9.64104C12.2857 9.45459 12.1677 9.23849 12.0958 9.00556C11.8269 8.1867 12.0328 7.15868 12.7095 5.95381Z" fill="#17D773"/>
</svg>
