<svg width="28" height="28" viewBox="0 0 28 28" fill="none" xmlns="http://www.w3.org/2000/svg">
<path d="M23.1338 4.86523L26.917 14L23.1338 23.1338L14 26.917L4.86523 23.1338L1.08203 14L4.86523 4.86523L14 1.08203L23.1338 4.86523Z" fill="#105626" stroke="#17D773" stroke-width="2"/>
<path d="M18.75 9.49929C18.1141 9.49905 17.4825 9.60466 16.8813 9.81179C15.9194 8.01429 14.1687 7.12054 14.0856 7.07929C13.9814 7.02715 13.8665 7 13.75 7C13.6335 7 13.5186 7.02715 13.4144 7.07929C13.3312 7.12054 11.5806 8.01679 10.6181 9.81179C10.0171 9.60462 9.38574 9.49901 8.75 9.49929C8.55109 9.49929 8.36032 9.5783 8.21967 9.71896C8.07902 9.85961 8 10.0504 8 10.2493V15.2493C8 16.7743 8.6058 18.2368 9.68414 19.3152C10.7625 20.3935 12.225 20.9993 13.75 20.9993C15.275 20.9993 16.7375 20.3935 17.8159 19.3152C18.8942 18.2368 19.5 16.7743 19.5 15.2493V10.2493C19.5 10.0504 19.421 9.85961 19.2803 9.71896C19.1397 9.5783 18.9489 9.49929 18.75 9.49929ZM9.5 11.0655C10.4153 11.2312 11.2512 11.6919 11.8801 12.3772C12.5089 13.0626 12.8961 13.935 12.9825 14.8612C12.0706 13.8667 10.8377 13.225 9.5 13.0487V11.0655ZM13 19.433C12.0191 19.2557 11.1316 18.7398 10.492 17.9753C9.85242 17.2108 9.50136 16.2461 9.5 15.2493V14.5655C10.4809 14.7429 11.3684 15.2588 12.008 16.0233C12.6476 16.7878 12.9986 17.7525 13 18.7493V19.433ZM11.9606 10.4812C12.4731 9.54741 13.2931 8.91866 13.75 8.62054C14.2075 8.91991 15.0269 9.54741 15.5394 10.4812C14.8026 10.9791 14.1904 11.6399 13.75 12.4124C13.3095 11.64 12.6972 10.9792 11.9606 10.4812ZM18 15.2493C17.9986 16.2461 17.6476 17.2108 17.008 17.9753C16.3684 18.7398 15.4809 19.2557 14.5 19.433V18.7493C14.5014 17.7525 14.8524 16.7878 15.492 16.0233C16.1316 15.2588 17.0191 14.7429 18 14.5655V15.2493ZM18 13.048C16.6623 13.2244 15.4294 13.8661 14.5175 14.8605C14.604 13.9345 14.9913 13.0623 15.6201 12.377C16.249 11.6917 17.0848 11.2311 18 11.0655V13.048Z" fill="#17D773"/>
</svg>
