<svg width="28" height="28" viewBox="0 0 28 28" fill="none" xmlns="http://www.w3.org/2000/svg">
<path d="M23.1338 4.86523L26.917 14L23.1338 23.1338L14 26.917L4.86523 23.1338L1.08203 14L4.86523 4.86523L14 1.08203L23.1338 4.86523Z" fill="#105626" stroke="#17D773" stroke-width="2"/>
<path d="M8.4 20C8.015 20 7.68553 19.863 7.4116 19.5891C7.13767 19.3152 7.00047 18.9855 7 18.6V12.51C7 12.23 7.07583 11.9733 7.2275 11.74C7.37917 11.5067 7.58917 11.3317 7.8575 11.215L10.92 9.92C11.1533 9.82667 11.375 9.84417 11.585 9.9725C11.795 10.1008 11.9 10.2933 11.9 10.55V10.9L14.4375 9.885C14.6708 9.79167 14.8895 9.815 15.0934 9.955C15.2973 10.095 15.3995 10.2875 15.4 10.5325V11.6H21V18.6C21 18.985 20.863 19.3147 20.5891 19.5891C20.3152 19.8635 19.9855 20.0005 19.6 20H8.4ZM13.3 17.2H14.7V14.4H13.3V17.2ZM10.5 17.2H11.9V14.4H10.5V17.2ZM16.1 17.2H17.5V14.4H16.1V17.2ZM20.86 10.55H17.6225L18.13 6.6125C18.1533 6.4375 18.2322 6.29167 18.3666 6.175C18.501 6.05833 18.6555 6 18.83 6H19.6875C19.8625 6 20.0142 6.05833 20.1425 6.175C20.2708 6.29167 20.3467 6.4375 20.37 6.6125L20.86 10.55Z" fill="#17D773"/>
</svg>
