<svg width="28" height="28" viewBox="0 0 28 28" fill="none" xmlns="http://www.w3.org/2000/svg">
<path d="M23.1338 4.86523L26.917 14L23.1338 23.1338L14 26.917L4.86523 23.1338L1.08203 14L4.86523 4.86523L14 1.08203L23.1338 4.86523Z" fill="#105626" stroke="#17D773" stroke-width="2"/>
<path d="M17.9368 10.6738C17.535 10.7792 17.0555 10.9752 16.6653 11.3232L16.6644 11.3242L16.6634 11.3232L16.4085 11.543L16.387 11.5615L16.3597 11.5518L16.0491 11.4424V11.4414C15.4323 11.241 14.7543 11.1348 14.0423 11.1348C11.0882 11.1348 8.8402 13.024 8.84015 15.1699C8.84015 16.3105 9.45068 17.3429 10.4964 18.1025H10.4974L10.9163 18.4121L10.9515 18.4385L10.931 18.4766L10.6751 18.9502L10.6741 18.9531C10.61 19.0571 10.5829 19.1796 10.598 19.3008C10.6093 19.3919 10.6439 19.4785 10.6976 19.5518L10.7571 19.6201L10.7581 19.6211C10.8089 19.6741 10.8703 19.7163 10.9378 19.7451C11.0051 19.7739 11.0775 19.789 11.1507 19.7891C11.224 19.7891 11.2971 19.7739 11.3646 19.7451C11.432 19.7163 11.4926 19.674 11.5433 19.6211L11.5443 19.6201L11.9642 19.2012L11.9651 19.2002L12.2034 18.9814L12.222 18.9629L12.2484 18.9697L12.5579 19.042C13.0448 19.1516 13.5423 19.2066 14.0413 19.2051H14.0423C14.5563 19.205 15.0559 19.1502 15.5257 19.042L15.8362 18.9697L15.8616 18.9629L15.8812 18.9814L16.1185 19.1992L16.1194 19.2012L16.5403 19.6221C16.591 19.6748 16.6518 19.7174 16.7191 19.7461C16.7863 19.7747 16.8588 19.789 16.9319 19.7891C17.0052 19.7891 17.0784 19.7748 17.1458 19.7461C17.2131 19.7174 17.2738 19.6749 17.3245 19.6221L17.3255 19.6211C17.514 19.4325 17.5372 19.1679 17.4095 18.9521L17.4085 18.9512L17.1526 18.4766L17.1321 18.4385L17.1673 18.4121L17.5862 18.1016H17.5872C18.1607 17.6864 18.6036 17.1974 18.8841 16.6436L19.0482 16.3145L19.0618 16.2871H19.8275V14.0527H19.0618L18.8841 13.6973V13.6963C18.679 13.3014 18.4104 12.9433 18.0892 12.6367L17.9485 12.5088L17.6937 12.29L17.6722 12.2715L17.6771 12.2432L17.7308 11.9326L17.9368 10.6738ZM17.5433 13.9531C17.8918 13.9531 18.1771 14.2383 18.1771 14.5869C18.1768 14.9353 17.8917 15.2197 17.5433 15.2197C17.1949 15.2197 16.9097 14.9353 16.9095 14.5869C16.9095 14.2383 17.1947 13.9531 17.5433 13.9531ZM12.5833 8.2168C11.7998 8.2168 11.1742 8.84247 11.1741 9.62598C11.1734 9.88217 11.2469 10.1323 11.3831 10.3486C12.1787 10.0543 13.0455 9.87887 13.9622 9.86914C13.9778 9.78708 13.9915 9.70797 13.9915 9.62598C13.9915 8.84261 13.3666 8.21703 12.5833 8.2168ZM19.2943 10.082L19.3431 10.0908L19.0189 11.8711C19.2924 12.1486 19.5342 12.4555 19.7405 12.7861H21.095V17.5547H19.7767C19.4648 18.0542 19.0736 18.4994 18.6185 18.873C18.7396 19.4491 18.6695 20.0597 18.2171 20.5127C17.873 20.8539 17.4077 21.0449 16.9232 21.0449C16.4386 21.0449 15.9733 20.8539 15.6292 20.5127L15.428 20.3115C14.9812 20.3937 14.5277 20.4716 14.0423 20.4717C13.5564 20.4717 13.1019 20.3938 12.6546 20.3115L12.4544 20.5127C12.1103 20.8539 11.645 21.0449 11.1605 21.0449C10.6759 21.0449 10.2106 20.8539 9.86652 20.5127C9.40483 20.0504 9.32995 19.4218 9.46417 18.8359C8.34492 17.8987 7.57257 16.633 7.57257 15.1699C7.57258 14.9704 7.59449 14.7786 7.6214 14.5889C6.9358 14.4497 6.40579 13.8545 6.40558 13.1279V13.127C6.40601 12.8862 6.46395 12.6489 6.5755 12.4355C6.68706 12.2222 6.84874 12.0391 7.0462 11.9014L7.08722 11.873L7.11554 11.9131L7.79132 12.8613L7.82062 12.9023L7.77863 12.9316C7.71471 12.9763 7.67218 13.0442 7.67218 13.1279V13.1289C7.67158 13.1606 7.67794 13.1923 7.68976 13.2217C7.70158 13.251 7.71922 13.2774 7.74152 13.2998C7.76401 13.3223 7.79111 13.3407 7.82062 13.3525C7.85004 13.3643 7.8817 13.3698 7.91339 13.3691H7.95538C8.3997 12.3565 9.20796 11.4959 10.2366 10.8838C10.0329 10.5109 9.90656 10.0846 9.90656 9.62598L9.9212 9.36133C9.98394 8.74972 10.2551 8.17485 10.6937 7.73633C11.1948 7.23529 11.8737 6.9528 12.5823 6.9502H12.5833C14.0539 6.95043 15.259 8.15538 15.2591 9.62598C15.2584 9.74884 15.2466 9.86901 15.2278 9.98633C15.5249 10.0405 15.8192 10.1089 16.1097 10.1914C16.7056 9.75116 17.3521 9.52487 17.8499 9.4082C18.1014 9.34929 18.3155 9.31802 18.4671 9.30176C18.5429 9.29363 18.6034 9.28953 18.6448 9.28711C18.6655 9.2859 18.6818 9.28556 18.6927 9.28516C18.6981 9.28496 18.7026 9.28425 18.7054 9.28418H19.3441V10.0908L19.2943 10.082Z" fill="#17D773" stroke="#17D773" stroke-width="0.1"/>
</svg>
