<svg width="28" height="28" viewBox="0 0 28 28" fill="none" xmlns="http://www.w3.org/2000/svg">
<path d="M23.1338 4.86523L26.917 14L23.1338 23.1338L14 26.917L4.86523 23.1338L1.08203 14L4.86523 4.86523L14 1.08203L23.1338 4.86523Z" fill="#105626" stroke="#17D773" stroke-width="2"/>
<path d="M12.3614 20.0665C9.52454 19.3062 7.84063 16.3898 8.60079 13.5528L8.89247 12.4643C9.49126 10.2296 11.0364 8.36739 13.1218 7.36565L16.156 5.90892L18.0543 8.68729C19.3594 10.5975 19.7655 12.9826 19.1668 15.2173L18.8751 16.3058C18.1149 19.1428 15.1985 20.8266 12.3614 20.0665Z" stroke="#17D773" stroke-width="2"/>
<path d="M14.8664 11.0842C13.3664 15.5842 12.3664 19.0842 14.0851 25.0843" stroke="#17D773" stroke-width="2" stroke-linecap="round"/>
</svg>
