<svg width="20" height="20" viewBox="0 0 20 20" fill="none" xmlns="http://www.w3.org/2000/svg">
<path d="M10 4C10 3.46957 9.78926 2.96086 9.41414 2.58579C9.03901 2.21071 8.53024 2 7.99973 2C7.46923 2 6.96045 2.21071 6.58533 2.58579C6.21021 2.96086 5.99947 3.46957 5.99947 4C5.57393 3.99996 5.15603 4.11304 4.78859 4.32765C4.42114 4.54225 4.11736 4.85067 3.90837 5.2213C3.69938 5.59194 3.59269 6.01146 3.59923 6.43689C3.60577 6.86232 3.72531 7.27837 3.94559 7.6424C3.39795 7.7482 2.90423 8.04134 2.54921 8.47147C2.19418 8.9016 2 9.4419 2 9.9996C2 10.5573 2.19418 11.0976 2.54921 11.5277C2.90423 11.9579 3.39795 12.251 3.94559 12.3568C3.7251 12.7209 3.6054 13.137 3.59875 13.5625C3.59211 13.9881 3.69876 14.4077 3.90778 14.7785C4.11679 15.1493 4.42065 15.4578 4.78821 15.6724C5.15577 15.8871 5.57381 16.0001 5.99947 16C5.99947 16.5304 6.21021 17.0391 6.58533 17.4142C6.96045 17.7893 7.46923 18 7.99973 18C8.53024 18 9.03901 17.7893 9.41414 17.4142C9.78926 17.0391 10 16.5304 10 16M10 16C10 16.5304 10.2107 17.0391 10.5859 17.4142C10.961 17.7893 11.4698 18 12.0003 18C12.5308 18 13.0395 17.7893 13.4147 17.4142C13.7898 17.0391 14.0005 16.5304 14.0005 16C14.4262 16.0001 14.8442 15.8871 15.2118 15.6724C15.5793 15.4578 15.8832 15.1493 16.0922 14.7785C16.3012 14.4077 16.4079 13.9881 16.4012 13.5625C16.3946 13.137 16.2749 12.7209 16.0544 12.3568C16.602 12.251 17.0958 11.9579 17.4508 11.5277C17.8058 11.0976 18 10.5573 18 9.9996C18 9.4419 17.8058 8.9016 17.4508 8.47147C17.0958 8.04134 16.602 7.7482 16.0544 7.6424C16.2747 7.27837 16.3942 6.86232 16.4008 6.43689C16.4073 6.01146 16.3006 5.59194 16.0916 5.2213C15.8826 4.85067 15.5789 4.54225 15.2114 4.32765C14.844 4.11304 14.4261 3.99996 14.0005 4C14.0005 3.46957 13.7898 2.96086 13.4147 2.58579C13.0395 2.21071 12.5308 2 12.0003 2C11.4698 2 10.961 2.21071 10.5859 2.58579C10.2107 2.96086 10 3.46957 10 4" stroke="#17D773" stroke-width="1.5" stroke-linecap="round" stroke-linejoin="round"/>
<path d="M8.78973 6V7.584M5.99976 8.8H7.64157M12.419 8.8H14.0608M12.419 11.1792H14.0608M5.99976 11.18H7.64157M8.78973 12.416V14M11.2101 12.416V14M11.202 6V7.584M8.44168 12.3744H11.6189C11.8311 12.3744 12.0346 12.2901 12.1847 12.1401C12.3347 11.9901 12.419 11.7866 12.419 11.5744V8.384C12.419 8.17183 12.3347 7.96834 12.1847 7.81831C12.0346 7.66829 11.8311 7.584 11.6189 7.584H8.44168C8.22948 7.584 8.02597 7.66829 7.87592 7.81831C7.72587 7.96834 7.64157 8.17183 7.64157 8.384V11.5744C7.64157 11.7866 7.72587 11.9901 7.87592 12.1401C8.02597 12.2901 8.22948 12.3744 8.44168 12.3744Z" stroke="#17D773" stroke-width="1.5" stroke-linecap="round"/>
</svg>
