<svg width="28" height="28" viewBox="0 0 28 28" fill="none" xmlns="http://www.w3.org/2000/svg">
<path d="M23.1338 4.86523L26.917 14L23.1338 23.1338L14 26.917L4.86523 23.1338L1.08203 14L4.86523 4.86523L14 1.08203L23.1338 4.86523Z" fill="#105626" stroke="#17D773" stroke-width="2"/>
<path d="M19.8695 10.2391C19.6011 10.239 19.3355 10.2942 19.0893 10.4012C18.8432 10.5082 18.6217 10.6649 18.4387 10.8613C18.2557 11.0577 18.1152 11.2897 18.0259 11.5429C17.9366 11.796 17.9004 12.0649 17.9195 12.3326L16.5956 12.7761C16.3857 12.3792 16.087 12.0362 15.7228 11.7737C15.3585 11.5113 14.9385 11.3365 14.4956 11.263V9.85435C14.9139 9.74254 15.2836 9.49604 15.5477 9.15299C15.8117 8.80994 15.9554 8.38944 15.9565 7.95652C15.9565 6.87391 15.0826 6 14 6C12.9174 6 12.0435 6.87391 12.0435 7.95652C12.0435 8.86957 12.6695 9.63261 13.5108 9.85435V11.263C12.5978 11.413 11.8282 11.987 11.4108 12.7761L10.0804 12.3326C10.0869 12.287 10.0869 12.2413 10.0869 12.1957C10.0869 11.113 9.21302 10.2391 8.13041 10.2391C7.0478 10.2391 6.17389 11.113 6.17389 12.1957C6.17389 13.2783 7.0478 14.1522 8.13041 14.1522C8.82172 14.1522 9.42172 13.7935 9.77389 13.2587L11.0978 13.7022C10.9674 14.5435 11.2087 15.437 11.8087 16.1087L10.8891 17.263C10.6413 17.1457 10.3739 17.087 10.0869 17.087C9.00432 17.087 8.13041 17.9609 8.13041 19.0435C8.13041 20.1261 9.00432 21 10.0869 21C11.1695 21 12.0435 20.1261 12.0435 19.0435C12.0435 18.6 11.9 18.1957 11.6521 17.8696L12.5717 16.7152C13.4587 17.2109 14.5413 17.2043 15.4217 16.7152L16.3413 17.8696C16.1 18.1957 15.9565 18.6 15.9565 19.0435C15.9565 20.1261 16.8304 21 17.913 21C18.9956 21 19.8695 20.1261 19.8695 19.0435C19.8695 17.9609 18.9956 17.087 17.913 17.087C17.6261 17.087 17.3587 17.1457 17.1108 17.2565L16.1913 16.1022C16.4807 15.7788 16.6946 15.3951 16.8176 14.9789C16.9405 14.5627 16.9694 14.1244 16.9022 13.6957L18.2261 13.2522C18.5717 13.787 19.1782 14.1457 19.8695 14.1457C20.9522 14.1457 21.8261 13.2717 21.8261 12.1891C21.8261 11.1065 20.9522 10.2391 19.8695 10.2391ZM8.13041 12.8478C7.77172 12.8478 7.47824 12.5543 7.47824 12.1957C7.47824 11.837 7.77172 11.5435 8.13041 11.5435C8.48911 11.5435 8.78258 11.837 8.78258 12.1957C8.78258 12.5543 8.48911 12.8478 8.13041 12.8478ZM10.0869 19.6957C9.72824 19.6957 9.43476 19.4022 9.43476 19.0435C9.43476 18.6848 9.72824 18.3913 10.0869 18.3913C10.4456 18.3913 10.7391 18.6848 10.7391 19.0435C10.7391 19.4022 10.4456 19.6957 10.0869 19.6957ZM13.3478 7.95652C13.3478 7.59783 13.6413 7.30435 14 7.30435C14.3587 7.30435 14.6522 7.59783 14.6522 7.95652C14.6522 8.31522 14.3587 8.6087 14 8.6087C13.6413 8.6087 13.3478 8.31522 13.3478 7.95652ZM14 15.7826C13.5676 15.7826 13.1529 15.6108 12.8471 15.3051C12.5413 14.9993 12.3695 14.5846 12.3695 14.1522C12.3695 13.7198 12.5413 13.305 12.8471 12.9993C13.1529 12.6935 13.5676 12.5217 14 12.5217C14.4324 12.5217 14.8471 12.6935 15.1529 12.9993C15.4586 13.305 15.6304 13.7198 15.6304 14.1522C15.6304 14.5846 15.4586 14.9993 15.1529 15.3051C14.8471 15.6108 14.4324 15.7826 14 15.7826ZM17.913 18.3913C18.2717 18.3913 18.5652 18.6848 18.5652 19.0435C18.5652 19.4022 18.2717 19.6957 17.913 19.6957C17.5543 19.6957 17.2608 19.4022 17.2608 19.0435C17.2608 18.6848 17.5543 18.3913 17.913 18.3913ZM19.8695 12.8478C19.5108 12.8478 19.2174 12.5543 19.2174 12.1957C19.2174 11.837 19.5108 11.5435 19.8695 11.5435C20.2282 11.5435 20.5217 11.837 20.5217 12.1957C20.5217 12.5543 20.2282 12.8478 19.8695 12.8478Z" fill="#17D773"/>
</svg>
