<svg width="28" height="28" viewBox="0 0 28 28" fill="none" xmlns="http://www.w3.org/2000/svg">
<path d="M23.1338 4.86523L26.917 14L23.1338 23.1338L14 26.917L4.86523 23.1338L1.08203 14L4.86523 4.86523L14 1.08203L23.1338 4.86523Z" fill="#105626" stroke="#17D773" stroke-width="2"/>
<path d="M11.6732 9.19574C11.397 9.19574 11.1732 9.41959 11.1732 9.69574V12.572C11.1732 12.746 11.266 12.9063 11.4088 13.0056C13.7901 14.6629 11.0549 16.3124 9.28272 17.1075C9.09933 17.1898 8.97941 17.3702 8.97941 17.5712V18.9333C8.97941 19.2095 9.20327 19.4333 9.47941 19.4333H19.4482C19.7244 19.4333 19.9482 19.2095 19.9482 18.9333V17.5701C19.9482 17.3696 19.8249 17.1884 19.6433 17.1037C15.5306 15.1859 17.2818 12.3472 20.2897 11.4881C20.5153 11.4236 20.6795 11.2225 20.6795 10.9878V9.69574C20.6795 9.41959 20.4556 9.19574 20.1795 9.19574H11.6732ZM7.03724 9.63699C6.68715 9.63699 6.44629 9.98859 6.61574 10.2949C7.18694 11.3276 8.09099 12.0471 9.37881 12.4205C9.68069 12.508 9.96844 12.2701 9.96844 11.9558V10.137C9.96844 9.86085 9.74459 9.63699 9.46844 9.63699H7.03724Z" fill="#17D773"/>
</svg>
