<svg width="78" height="69" viewBox="0 0 78 69" fill="none" xmlns="http://www.w3.org/2000/svg">
<path d="M39.1135 3.45117L74.9789 65.5719H3.24805L39.1135 3.45117Z" fill="#105626"/>
<path d="M43.841 2.87596L76.9491 60.2188C77.4539 61.0932 77.7197 62.085 77.7197 63.0947C77.7197 64.1044 77.4539 65.0962 76.9491 65.9706C76.4443 66.845 75.7182 67.5712 74.8438 68.076C73.9694 68.5808 72.9776 68.8466 71.9679 68.8467H5.75178C4.74211 68.8466 3.75025 68.5808 2.87587 68.076C2.00148 67.5712 1.27539 66.845 0.770575 65.9706C0.265755 65.0962 -6.41242e-06 64.1044 1.16043e-10 63.0947C6.41265e-06 62.085 0.265781 61.0932 0.770611 60.2188L33.8787 2.87596C36.0912 -0.958654 41.6246 -0.958654 43.841 2.87596ZM38.8598 9.58654L9.07255 61.1774H68.6471L38.8598 9.58654ZM38.8598 48.3238C39.8768 48.3238 40.8522 48.7278 41.5713 49.4469C42.2904 50.1661 42.6945 51.1414 42.6945 52.1584C42.6945 53.1754 42.2904 54.1508 41.5713 54.8699C40.8522 55.589 39.8768 55.993 38.8598 55.993C37.8428 55.993 36.8675 55.589 36.1484 54.8699C35.4292 54.1508 35.0252 53.1754 35.0252 52.1584C35.0252 51.1414 35.4292 50.1661 36.1484 49.4469C36.8675 48.7278 37.8428 48.3238 38.8598 48.3238ZM38.8598 21.4815C39.8768 21.4815 40.8522 21.8855 41.5713 22.6046C42.2904 23.3238 42.6945 24.2991 42.6945 25.3161V40.6546C42.6945 41.6716 42.2904 42.6469 41.5713 43.3661C40.8522 44.0852 39.8768 44.4892 38.8598 44.4892C37.8428 44.4892 36.8675 44.0852 36.1484 43.3661C35.4292 42.6469 35.0252 41.6716 35.0252 40.6546V25.3161C35.0252 24.2991 35.4292 23.3238 36.1484 22.6046C36.8675 21.8855 37.8428 21.4815 38.8598 21.4815Z" fill="#17D773"/>
</svg>
