<svg width="32" height="32" viewBox="0 0 32 32" fill="none" xmlns="http://www.w3.org/2000/svg">
<g clip-path="url(#clip0_12_31)">
<path d="M6.94974 19.5061L17.8512 8.60465C19.3526 7.10327 21.3365 6.18064 23.4521 6.00065L26.3586 5.75413L26.1121 8.66059C25.9321 10.7762 25.0094 12.7601 23.5081 14.2615L12.6066 25.163L6.94974 19.5061Z" fill="#17D773" fill-opacity="0.3" stroke="#17D773" stroke-width="2"/>
<path d="M18.2635 8.89951L23.2132 13.8493" stroke="#17D773" stroke-width="2"/>
<path d="M6.793 19.6628L3.77398 18.4392L6.46016 15.753C7.0623 15.1509 7.97314 14.8424 9.01306 14.9831L11.18 15.2759L6.793 19.6628ZM17.1296 23.0996C17.2703 24.1396 16.9618 25.0504 16.3597 25.6525L13.6735 28.3387L12.4499 25.3197L16.8368 20.9327L17.1296 23.0996Z" fill="#17D773" fill-opacity="0.3" stroke="#17D773" stroke-width="2"/>
</g>
<defs>
<clipPath id="clip0_12_31">
<rect width="32" height="32" fill="white"/>
</clipPath>
</defs>
</svg>
