<svg width="20" height="20" viewBox="0 0 20 20" fill="none" xmlns="http://www.w3.org/2000/svg">
<path d="M3.59047 7.3624C3.22416 7.2584 2.73042 7.2064 2.08893 7.2008C2.07436 7.20087 2.06 7.19768 2.04712 7.19152C2.03425 7.18537 2.02325 7.17643 2.01511 7.16551C2.00697 7.15459 2.00193 7.14202 2.00046 7.12891C1.99898 7.11581 2.0011 7.10258 2.00664 7.0904L2.82953 5.228C2.83817 5.21038 2.85357 5.19617 2.87288 5.188C3.38254 4.9824 4.44256 5.1656 5.34154 5.696L5.58222 5.2136C5.58835 5.20095 5.59076 5.18709 5.58921 5.17335C5.58766 5.15961 5.5822 5.14647 5.57337 5.1352L4.56732 3.8336C4.56053 3.825 4.55569 3.81527 4.55309 3.80497C4.55048 3.79468 4.55015 3.78401 4.55212 3.7736C4.5541 3.76319 4.55834 3.75323 4.56459 3.7443C4.57084 3.73538 4.57899 3.72766 4.58856 3.7216L6.25114 2.6704C6.27029 2.65825 6.29397 2.65346 6.31702 2.65705C6.34007 2.66065 6.3606 2.67235 6.37413 2.6896L7.37399 3.9816C7.38456 3.99536 7.39963 4.00577 7.4171 4.01137C7.43456 4.01697 7.45352 4.01747 7.47132 4.0128L8.02522 3.8664L8.03407 3.7144V2.08C8.03407 2.05878 8.04339 2.03843 8.05998 2.02343C8.07658 2.00843 8.09908 2 8.12255 2H10.1497C10.1732 2 10.1957 2.00843 10.2123 2.02343C10.2288 2.03843 10.2382 2.05878 10.2382 2.08V3.648C10.2382 3.66667 10.2455 3.68473 10.2588 3.69904C10.272 3.71336 10.2904 3.72304 10.3107 3.7264L10.9177 3.8272C9.80814 4.3784 8.81979 5.2592 8.21103 6.6224C7.51202 6.54 6.71391 6.5544 5.79988 6.7336C5.16281 6.8584 4.33815 7.028 3.59136 7.3624M17 4.2H14.7879C12.8413 4.2 10.5691 4.7816 9.51792 6.9096C10.1638 7.1184 10.6992 7.3936 11.1469 7.64C11.4327 7.1416 11.8229 6.6392 12.3848 6.3008C12.8404 6.0256 13.4448 5.8848 14.0305 5.812C14.6514 5.74163 15.2779 5.72101 15.9028 5.7504C16.2842 5.7664 16.6576 5.7984 17 5.8408V4.2Z" fill="#17D773"/>
<path d="M15.1773 6.9392C15.6703 7.08932 16.0962 7.37983 16.3912 7.7672C16.8381 8.3432 16.9832 9.0696 16.9982 9.7528C17.0301 11.1256 16.5443 12.7392 16.0382 13.8944C15.4604 15.2128 14.3163 16.228 13.1846 16.9056C12.0786 17.5688 10.8266 18 9.91963 18C9.01003 18 8.00575 17.6072 7.15455 17.1296C6.27857 16.6392 5.42914 15.9824 4.81861 15.3048C4.1895 14.604 3.30822 13.0856 2.97818 11.6088C2.84103 10.9968 2.78351 10.3272 2.92509 9.6984C3.09763 9.1328 3.50907 8.7624 4.07005 8.4888C4.66908 8.1976 5.38932 8.0416 6.08037 7.9064C8.21811 7.488 9.5073 8.1408 10.5647 8.7248C10.2762 9.29365 10.0815 9.89767 9.98688 10.5176C9.38778 10.456 8.78203 10.5586 8.24819 10.812C8.20998 10.7939 8.17035 10.7784 8.12963 10.7656L6.51925 10.2728L6.09453 11.4096L7.14128 11.7296L6.67763 12.8512L7.91992 13.272L8.34464 12.2464L8.49329 12.1192C8.68002 11.9577 8.90558 11.8376 9.15229 11.7682C9.39899 11.6988 9.66013 11.682 9.91521 11.7192C9.92405 11.9155 9.94175 12.0973 9.96829 12.2648C10.0143 12.564 10.0922 12.8512 10.2125 13.068L10.3205 13.2624L10.0754 15.3232L11.3955 15.4512L11.584 13.8608L13.3439 14.0312L13.4855 12.8384L11.461 12.6416L11.3991 12.532C11.3725 12.4824 11.3194 12.3416 11.2823 12.0976C11.2414 11.8152 11.2283 11.5301 11.2433 11.2456C11.2575 10.9504 11.2991 10.6328 11.3761 10.3088L11.4008 10.2664C11.5318 10.0092 11.6476 9.7459 11.7477 9.4776L11.7689 9.4256C11.8751 9.1568 11.983 8.8816 12.1105 8.6096L12.1202 8.5896L12.1299 8.572L12.129 8.5712C12.4033 7.9952 12.7166 7.5424 13.12 7.2992C13.328 7.1744 13.6969 7.0648 14.2119 7.0008C14.5128 6.9632 14.841 6.9432 15.1764 6.9392" fill="#17D773"/>
</svg>
