<svg width="20" height="20" viewBox="0 0 20 20" fill="none" xmlns="http://www.w3.org/2000/svg">
<path d="M10.1043 3.00015C9.69113 3.00752 9.33448 3.28799 8.93646 3.66807C6.81339 5.69485 4.20543 8.50525 3.47593 10.4763C3.20161 10.0255 2.24594 10.1251 2.24594 10.7488C2.24594 11.284 2.91091 11.4321 3.29091 11.2031C3.27057 11.3805 3.27371 11.5462 3.30232 11.6995C3.09174 11.7766 2.92924 11.945 2.92924 12.2023C2.92924 12.7658 3.66648 12.9014 4.03205 12.6182C4.20255 12.7342 4.37705 12.8409 4.55503 12.9381C4.52791 13 4.51369 13.0706 4.51369 13.1492C4.51369 13.6248 5.03852 13.7947 5.42226 13.6661C5.41743 13.6952 5.41498 13.7264 5.41498 13.7583C5.41498 14.5073 6.71833 14.5006 6.71833 13.7583C6.71833 13.7522 6.71747 13.7463 6.71734 13.7404C7.18948 13.8523 7.68031 13.936 8.18189 13.9924C8.28122 14.5787 9.26202 14.6029 9.447 14.0769C9.94419 14.0887 10.4446 14.0769 10.9405 14.041C10.936 14.0694 10.9323 14.0996 10.9323 14.1306C10.9323 14.7107 11.7146 14.8369 12.0672 14.5195C12.4545 15.2311 13.9194 15.0969 13.9194 14.1357C13.9194 14.0414 13.9059 13.9552 13.8801 13.8772C14.1964 14.0616 14.6266 14.0911 14.9798 13.9655C15.0604 14.6414 16.279 14.6103 16.279 13.8925C16.279 13.5064 15.927 13.3264 15.5886 13.3436C15.6077 13.2701 15.6185 13.1908 15.6185 13.1057C15.6185 13.03 15.6099 12.9596 15.5947 12.8932C15.7628 12.8116 15.9248 12.7254 16.0795 12.6361C16.4844 12.4025 16.6613 12.0249 16.6645 11.5485C17.046 11.7684 17.7002 11.6126 17.7002 11.0867C17.7002 10.4947 16.8712 10.3837 16.5353 10.7322C15.9218 8.61785 13.2529 5.45229 11.2175 3.55928C10.7817 3.15393 10.4257 2.99442 10.1043 3.00015ZM17.3489 12.4621C17.0229 12.4639 16.6966 12.6495 16.6966 13.0136C16.6966 13.7626 18 13.7559 18 13.0136C18 12.6424 17.6747 12.4603 17.3488 12.4621H17.3489ZM2.65224 12.9355C2.32632 12.9373 2 13.1229 2 13.487C2 14.2361 3.30335 14.2293 3.30335 13.487C3.30335 13.1159 2.97809 12.9338 2.6522 12.9356L2.65224 12.9355ZM4.15397 14.0999C3.79974 14.1018 3.44517 14.2971 3.42116 14.6795C3.07685 14.6578 2.71005 14.8423 2.71005 15.2284C2.71005 15.9384 3.88103 15.9694 4.00305 15.3384C4.41268 15.4035 4.8878 15.1974 4.8878 14.7217C4.8878 14.3039 4.52083 14.0979 4.15397 14.0999ZM7.10491 14.5259C6.88473 14.5272 6.66435 14.6119 6.54462 14.7793C6.09837 14.663 5.52347 14.8724 5.52347 15.3973C5.52347 16.1923 6.76996 16.2643 7.01703 15.6314C7.36941 15.6671 7.75605 15.482 7.75605 15.0774C7.75605 14.7062 7.43083 14.5242 7.10494 14.5259H7.10491ZM10.0547 14.5925C9.72887 14.5943 9.40259 14.7799 9.40259 15.144C9.40259 15.893 10.707 15.8863 10.707 15.144C10.707 14.7728 10.3806 14.5907 10.0547 14.5925ZM17.0211 14.8407C16.5928 14.843 16.1643 15.0876 16.1643 15.5663C16.1643 16.5507 17.8769 16.5418 17.8769 15.5662C17.8769 15.0784 17.4495 14.8384 17.0211 14.8407ZM14.5343 15.1325C14.2084 15.1342 13.8821 15.3198 13.8821 15.6839C13.8821 16.4329 15.1865 16.4262 15.1865 15.6839C15.1865 15.3128 14.8602 15.1307 14.5343 15.1324L14.5343 15.1325ZM8.53844 15.6955C8.16476 15.6974 7.79118 15.91 7.79118 16.3275C7.79118 16.8387 8.32057 17.0421 8.74936 16.9442C8.97572 17.71 10.433 17.6329 10.433 16.733C10.433 16.1099 9.73492 15.893 9.2299 16.0664C9.11222 15.8165 8.82546 15.6939 8.53844 15.6954V15.6955ZM12.5684 15.9794C12.363 15.9805 12.1569 16.0549 12.0331 16.2008C11.6495 15.9985 11.015 16.1581 11.015 16.6665C11.015 17.2765 11.8795 17.3846 12.2005 17.0031C12.5841 17.2088 13.2196 17.0492 13.2196 16.5309C13.2196 16.1598 12.8943 15.9777 12.5684 15.9794L12.5684 15.9794ZM4.6192 16.0844C4.24545 16.0864 3.87085 16.299 3.87085 16.7164C3.87085 17.5754 5.36649 17.5677 5.36649 16.7164C5.36649 16.2909 4.99288 16.0823 4.6192 16.0844V16.0844ZM15.7013 16.6511C15.3344 16.6531 14.9674 16.8618 14.9674 17.2717C14.9674 18.1149 16.4351 18.1074 16.4351 17.2717C16.4351 16.8538 16.0681 16.6491 15.7013 16.651V16.6511ZM6.74935 16.7266C6.37561 16.7286 6.00206 16.9411 6.00206 17.3587C6.00206 18.2176 7.49665 18.2099 7.49665 17.3587C7.49665 16.9331 7.12303 16.7246 6.74935 16.7266Z" fill="#17D773"/>
</svg>
