<svg width="28" height="28" viewBox="0 0 28 28" fill="none" xmlns="http://www.w3.org/2000/svg">
<path d="M23.1338 4.86523L26.917 14L23.1338 23.1338L14 26.917L4.86523 23.1338L1.08203 14L4.86523 4.86523L14 1.08203L23.1338 4.86523Z" fill="#105626" stroke="#17D773" stroke-width="2"/>
<path d="M9.05884 11.1176V7.41176C9.05884 7.18529 9.24413 7 9.4706 7H11.1177C11.3441 7 11.5294 7.18529 11.5294 7.41176V8.44118C11.5294 8.55441 11.6221 8.64706 11.7353 8.64706H12.5588C12.6721 8.64706 12.7647 8.55441 12.7647 8.44118V7.41176C12.7647 7.18529 12.95 7 13.1765 7H14.8235C15.05 7 15.2353 7.18529 15.2353 7.41176V8.44118C15.2353 8.55441 15.328 8.64706 15.4412 8.64706H16.2647C16.378 8.64706 16.4706 8.55441 16.4706 8.44118V7.41176C16.4706 7.18529 16.6559 7 16.8824 7H18.5294C18.7559 7 18.9412 7.18529 18.9412 7.41176V11.1176C18.9412 11.3776 18.8202 11.6221 18.6118 11.7765L17.2941 12.7647L17.7059 18.1176H10.2941L10.7059 12.7647L9.38825 11.7765C9.17979 11.6221 9.05884 11.3776 9.05884 11.1176ZM13.5882 14.4118H14.4118C14.6382 14.4118 14.8235 14.2265 14.8235 14V12.7647C14.8235 12.3092 14.4555 11.9412 14 11.9412C13.5445 11.9412 13.1765 12.3092 13.1765 12.7647V14C13.1765 14.2265 13.3618 14.4118 13.5882 14.4118Z" fill="#17D773"/>
<path d="M9.05884 18.5294C9.05884 18.0746 9.42754 17.7059 9.88237 17.7059H18.1177C18.5725 17.7059 18.9412 18.0746 18.9412 18.5294V20.1765C18.9412 20.6313 18.5725 21 18.1177 21H9.88237C9.42754 21 9.05884 20.6313 9.05884 20.1765V18.5294Z" fill="#17D773"/>
</svg>
