<svg width="16" height="24" viewBox="0 0 16 24" fill="none" xmlns="http://www.w3.org/2000/svg">
<path d="M8 1C11.8903 1 15 4.22965 15 8.1582C14.9999 9.23467 14.5443 10.5661 13.9766 11.8477C13.3918 13.1675 12.6201 14.5791 11.8604 15.8633C11.0986 17.1508 10.3385 18.3284 9.76953 19.1826C9.48485 19.61 9.24689 19.9578 9.08008 20.1992C8.99673 20.3198 8.93092 20.4141 8.88574 20.4785C8.86317 20.5107 8.84593 20.5358 8.83398 20.5527C8.82806 20.5611 8.82347 20.5678 8.82031 20.5723C8.81878 20.5744 8.81726 20.576 8.81641 20.5771L8.81543 20.5791L8 21.7256L7.18457 20.5791L7.18359 20.5771C7.18274 20.576 7.18122 20.5744 7.17969 20.5723C7.17653 20.5678 7.17194 20.5611 7.16602 20.5527C7.15407 20.5358 7.13683 20.5107 7.11426 20.4785C7.06908 20.4141 7.00327 20.3198 6.91992 20.1992C6.75311 19.9578 6.51515 19.61 6.23047 19.1826C5.66149 18.3284 4.90136 17.1508 4.13965 15.8633C3.37989 14.5791 2.60818 13.1675 2.02344 11.8477C1.45567 10.5661 1.00009 9.23467 1 8.1582C1 4.22965 4.10968 1 8 1Z" fill="#FF5A41" stroke="#F2FFC5" stroke-width="2"/>
<circle cx="8" cy="8" r="3" fill="#F2FFC5"/>
</svg>
