<svg width="417" height="498" viewBox="0 0 417 498" fill="none" xmlns="http://www.w3.org/2000/svg">
<path opacity="0.5" d="M1.21863 445.758H69.7036" stroke="#17D773" stroke-width="2.44394"/>
<path opacity="0.5" d="M135.743 382.776L69.7036 445.758" stroke="#17D773" stroke-width="2.44394"/>
<path opacity="0.5" d="M20.7858 213.398L1.21863 446.981" stroke="#17D773" stroke-width="2.44394"/>
<path opacity="0.5" d="M19.5628 212.787L151.03 247.029" stroke="#17D773" stroke-width="2.44394"/>
<path opacity="0.5" d="M151.03 247.029L217.68 300.227" stroke="#17D773" stroke-width="2.44394"/>
<path opacity="0.5" d="M414.574 289.221L350.37 228.685" stroke="#17D773" stroke-width="2.44394"/>
<path opacity="0.5" d="M350.37 228.685L287.388 211.564" stroke="#17D773" stroke-width="2.44394"/>
<path opacity="0.5" d="M287.388 213.398L218.292 301.45" stroke="#17D773" stroke-width="2.44394"/>
<path opacity="0.5" d="M179.157 127.18L287.388 213.398" stroke="#17D773" stroke-width="2.44394"/>
<path opacity="0.5" d="M269.655 464.713L376.663 477.554" stroke="#17D773" stroke-width="2.44394"/>
<path opacity="0.5" d="M135.131 383.999L163.87 496.51" stroke="#17D773" stroke-width="2.44394"/>
<path opacity="0.5" d="M218.292 301.45L135.131 383.999" stroke="#17D773" stroke-width="2.44394"/>
<path opacity="0.5" d="M164.482 496.51L269.655 464.713" stroke="#17D773" stroke-width="2.44394"/>
<path opacity="0.5" d="M30.5693 48.3002L112.507 17.115" stroke="#17D773" stroke-width="2.44394"/>
<path opacity="0.5" d="M179.769 126.569L309.401 56.8608" stroke="#17D773" stroke-width="2.44394"/>
<path opacity="0.5" d="M379.721 95.995L415.798 290.444" stroke="#17D773" stroke-width="2.44394"/>
<path opacity="0.5" d="M309.401 61.1411L379.721 95.9951" stroke="#17D773" stroke-width="2.44394"/>
<path opacity="0.5" d="M112.507 17.115L179.157 125.957" stroke="#17D773" stroke-width="2.44394"/>
<path opacity="0.5" d="M308.79 59.9181L293.503 1.2167" stroke="#17D773" stroke-width="2.44394"/>
<path opacity="0.5" d="M293.503 1.2167L112.507 19.5609" stroke="#17D773" stroke-width="2.44394"/>
</svg>
